<svg id="Layer_1" data-name="Layer 1" xmlns="http://www.w3.org/2000/svg" viewBox="0 0 12.78 12.78"><defs><style>.cls-1{fill:#f57f20;}</style></defs><title>poltrona_selecionada</title><path class="cls-1" d="M.49,3.21V9.57a1.34,1.34,0,0,0,1.34,1.34H9.14a1.34,1.34,0,0,0,1.34-1.34V3.21A1.34,1.34,0,0,0,9.14,1.87H1.83A1.34,1.34,0,0,0,.49,3.21Z"/><path class="cls-1" d="M9.19.14h-4a.63.63,0,0,0,0,1.26h4A1.84,1.84,0,0,1,11,3.24v6.3a1.84,1.84,0,0,1-1.84,1.84H5.11a.63.63,0,1,0,0,1.26H9.19a3.1,3.1,0,0,0,3.1-3.1V3.24A3.1,3.1,0,0,0,9.19.14Z"/></svg>